<?xml version="1.0" encoding="UTF-8" standalone="no"?>
<!-- Created with Inkscape (http://www.inkscape.org/) -->

<svg
   width="100cm"
   height="100cm"
   viewBox="0 0 377.95276 377.95276"
   version="1.1"
   id="svg13646"
   inkscape:version="1.1.1 (3bf5ae0d25, 2021-09-20)"
   sodipodi:docname="sidt-codegen.svg"
   xmlns:inkscape="http://www.inkscape.org/namespaces/inkscape"
   xmlns:sodipodi="http://sodipodi.sourceforge.net/DTD/sodipodi-0.dtd"
   xmlns="http://www.w3.org/2000/svg"
   xmlns:svg="http://www.w3.org/2000/svg">
  <sodipodi:namedview
     id="namedview13648"
     pagecolor="#ffffff"
     bordercolor="#999999"
     borderopacity="1"
     inkscape:pageshadow="0"
     inkscape:pageopacity="0"
     inkscape:pagecheckerboard="0"
     inkscape:document-units="px"
     showgrid="false"
     units="cm"
     inkscape:zoom="0.16013082"
     inkscape:cx="1114.7136"
     inkscape:cy="1495.6521"
     inkscape:window-width="1920"
     inkscape:window-height="991"
     inkscape:window-x="-9"
     inkscape:window-y="-9"
     inkscape:window-maximized="1"
     inkscape:current-layer="layer1"
     width="100cm" />
  <defs
     id="defs13643" />
  <g
     inkscape:label="Layer 1"
     inkscape:groupmode="layer"
     id="layer1">
    <path
       style="fill:none;stroke:#000000;stroke-width:7.03585;stroke-linecap:butt;stroke-linejoin:miter;stroke-miterlimit:4;stroke-dasharray:none;stroke-opacity:1"
       d="M 20.834894,226.59748 50.372175,246.084 78.3321,223.97896 V 195.62973 L 38.869739,182.17067 v -4.32802 l 10.588675,-9.9328 73.912956,0.14449 v 61.4426 h -20.99588 l -0.005,15.03421 112.82024,-0.1371 27.44258,-15.82208 7.6e-4,-60.35911 97.99603,-0.0566 v 22.21833 11.17937 h 30.03804 v -85.76424 h -44.45508 v 22.3255 H 43.558136"
       id="path9111"
       sodipodi:nodetypes="cccccccccccccccccccccc" />
    <path
       style="fill:none;stroke:#000000;stroke-width:7.03585;stroke-linecap:butt;stroke-linejoin:miter;stroke-miterlimit:4;stroke-dasharray:none;stroke-opacity:1"
       d="m 29.065794,214.19161 20.51488,13.59104 13.98175,-10.98533 V 206.338 L 23.972505,192.87999 v -21.44082 l 19.602006,-18.43504 116.070399,0.0148 v 15.03551 H 138.6425 v 61.44258 l 45.06677,-0.0765 v -76.40785 l 156.92217,0.24649 v -22.20981 h 14.90575 v 59.32538"
       id="path9113" />
    <path
       style="fill:none;stroke:#000000;stroke-width:7.03585;stroke-linecap:butt;stroke-linejoin:miter;stroke-miterlimit:4;stroke-dasharray:none;stroke-opacity:1"
       d="m 198.60555,167.91832 v 61.56162 h 12.54583 l 16.58547,-9.53117 v -51.5676 z"
       id="path9115" />
  </g>
</svg>
